<?xml version="1.0" encoding="utf-8"?>
<!-- Generator: Adobe Illustrator 27.3.1, SVG Export Plug-In . SVG Version: 6.00 Build 0)  -->
<svg version="1.1" id="Layer_1" xmlns="http://www.w3.org/2000/svg" xmlns:xlink="http://www.w3.org/1999/xlink" x="0px" y="0px"
	 viewBox="0 0 807.6 33.5" style="enable-background:new 0 0 807.6 33.5;" xml:space="preserve">
<style type="text/css">
	.st0{fill:#636363;}
	.st1{fill:#FFFFFF;}
	.st2{fill:#9A8B87;}
	.st3{filter:url(#Adobe_OpacityMaskFilter);}
	.st4{mask:url(#d_00000137822832588113865110000000440286766415598526_);fill:#636363;}
	.st5{fill:#FFFFFE;}
	.st6{fill-rule:evenodd;clip-rule:evenodd;fill:#636363;}
	.st7{fill:#8D8D8D;}
</style>
<path class="st0" d="M643.9,12.2h1.4v3.2h3.7v-3.2h1.4v7.7H649v-3.3h-3.7v3.3h-1.4L643.9,12.2L643.9,12.2z M651.6,15.9
	c-0.1-2.2,1.7-4,3.8-4.1h0.2c1.2-0.1,2.3,0.4,3.1,1.2l-0.9,1c-0.6-0.6-1.3-1-2.2-1c-1.4,0-2.6,1.2-2.6,2.7s1.1,2.8,2.6,2.8
	c1,0,1.6-0.4,2.3-1l0.9,0.9c-0.8,0.8-1.7,1.4-3.1,1.4C653.3,19.9,651.6,18.1,651.6,15.9z M659.6,12.2h1.4v6.6h4.1v1.1h-5.5V12.2z
	 M669,15.9c-0.1-2.2,1.7-4,3.8-4.1h0.2c1.2-0.1,2.3,0.4,3.1,1.2l-0.9,1c-0.6-0.6-1.3-1-2.2-1c-1.4,0-2.6,1.2-2.6,2.7
	s1.1,2.8,2.6,2.8c1,0,1.6-0.4,2.3-1l0.9,0.9c-0.8,0.8-1.7,1.4-3.1,1.4C670.7,19.9,669,18.1,669,15.9z M676.5,16.9
	c0.1-1.7,1.5-3.1,3.2-3.1c1.7,0.1,3,1.4,3.1,3c0,1.7-1.4,3.1-3.1,3.1h-0.1C678,19.9,676.6,18.6,676.5,16.9L676.5,16.9z M681.4,16.9
	c0-1-0.8-1.9-1.8-1.9s-1.7,0.8-1.7,1.9c-0.1,1,0.8,1.9,1.7,1.9h0.1C680.7,18.7,681.4,17.8,681.4,16.9z M683.7,13.9h1.3v0.9
	c0.4-0.5,0.9-1,1.8-1c0.8-0.1,1.4,0.3,1.7,1c0.5-0.6,1.2-1,2-1c1.3,0,2.1,0.8,2.1,2.3v3.7h-1.3v-3.3c0-0.9-0.4-1.4-1.2-1.4
	s-1.3,0.5-1.3,1.4v3.3h-1.3v-3.4c0-0.9-0.5-1.4-1.2-1.4s-1.3,0.6-1.3,1.4v3.3h-1.3C683.7,19.7,683.7,13.9,683.7,13.9z M693.8,13.9
	h1.3v0.9c0.4-0.5,0.9-1,1.8-1c0.8-0.1,1.4,0.3,1.7,1c0.5-0.6,1.2-1,2-1c1.3,0,2.1,0.8,2.1,2.3v3.7h-1.3v-3.3c0-0.9-0.4-1.4-1.2-1.4
	s-1.3,0.5-1.3,1.4v3.3h-1.3v-3.4c0-0.9-0.5-1.4-1.2-1.4s-1.3,0.6-1.3,1.4v3.3h-1.3C693.8,19.7,693.8,13.9,693.8,13.9z M703.6,16.9
	c0-1.7,1.2-3.1,2.9-3.1c1.9,0,2.8,1.4,2.8,3.1v0.4h-4.2c0.1,0.9,0.8,1.5,1.7,1.5c0.6,0,1.2-0.2,1.6-0.7l0.8,0.7
	c-0.6,0.8-1.5,1.2-2.4,1.1C705,19.9,703.6,18.7,703.6,16.9L703.6,16.9z M708.1,16.4c-0.1-0.9-0.6-1.6-1.5-1.6
	c-0.8,0-1.4,0.6-1.5,1.6H708.1z M710.3,13.9h1.3v1.3c0.3-0.9,1-1.5,2.1-1.4v1.4h-0.1c-1.2,0-2,0.8-2,2.3v2.3h-1.3V13.9z M714,16.9
	c0-1.7,1.3-3.1,3-3.1h0.1c0.9-0.1,1.7,0.3,2.3,1l-0.8,0.9c-0.4-0.4-0.8-0.8-1.5-0.8c-1,0-1.7,0.8-1.7,1.9c0,1,0.8,1.9,1.7,1.9
	c0.6,0,1.1-0.3,1.5-0.8l0.8,0.8c-1.1,1.3-3,1.5-4.3,0.4C714.4,18.6,714,17.7,714,16.9z M719.7,16.9c0-1.7,1.2-3.1,2.9-3.1
	c1.9,0,2.8,1.4,2.8,3.1v0.4h-4.3c0.1,0.9,0.8,1.5,1.7,1.5c0.6,0,1.2-0.2,1.6-0.7l0.8,0.7c-0.6,0.8-1.5,1.2-2.4,1.1
	C721,19.9,719.7,18.7,719.7,16.9z M724,16.4c-0.1-0.9-0.6-1.6-1.5-1.6c-0.8,0-1.4,0.6-1.5,1.6H724z M623.2,9.7H637v13.8h-13.8V9.7z"
	/>
<path class="st0" d="M637,9.7v13.8h-13.8V9.7H637 M637,9.2h-13.8c-0.3,0-0.6,0.2-0.6,0.6v13.8c0,0.3,0.2,0.6,0.6,0.6H637
	c0.3,0,0.6-0.2,0.6-0.6V9.7C637.5,9.3,637.3,9.2,637,9.2z"/>
<path class="st1" d="M636.4,12.7l-1,2.2h-7l1-2.2H636.4z M627.3,17.3l-2.3-2.6l-1.1,2.4l2.3,2.8h7l1.2-2.6L627.3,17.3z"/>
<path class="st0" d="M398.6,16.9c0.5,0,0.8,0,1.4-0.2l0.2,1c-0.5,0.1-1,0.2-1.5,0.2c-2.3,0-3-1.5-3-3.1c0-1.7,1-3,3-3
	c0.5,0,1,0.1,1.5,0.2l-0.2,1c-0.6-0.1-0.9-0.2-1.3-0.2c-1.2,0-1.8,0.9-1.9,2C396.7,15.8,397.1,16.9,398.6,16.9z M403.3,16.9
	c1.2,0,1.6-1,1.6-2.1c0-1-0.4-2.1-1.6-2.1s-1.6,1.1-1.6,2.1C401.7,15.9,402.2,16.9,403.3,16.9z M403.3,11.7c1.9,0,2.8,1.4,2.8,3.1
	c0,1.6-0.7,3.1-2.8,3.1c-2,0-2.8-1.5-2.8-3.1S401.4,11.8,403.3,11.7z M413.9,17.8V14c0-1-0.4-1.2-1-1.2c-0.4,0-0.9,0.2-1.3,0.6v4.5
	h-1.2V14c0-1-0.3-1.2-0.9-1.2c-0.4,0-0.9,0.3-1.4,0.6v4.5H407v-6h1.2v0.5c0.4-0.3,0.9-0.6,1.6-0.6c0.8,0,1.3,0.3,1.6,0.7
	c0.5-0.5,1.2-0.7,1.8-0.7c1.9,0,2,1.5,2,2.2v3.9h-1.3C413.9,17.9,413.9,17.8,413.9,17.8z M423.2,17.8V14c0-1-0.4-1.2-1-1.2
	c-0.4,0-0.9,0.2-1.3,0.6v4.5h-1.2V14c0-1-0.3-1.2-0.9-1.2c-0.4,0-0.9,0.3-1.4,0.6v4.5h-1.2v-6h1.2v0.5c0.4-0.3,0.9-0.6,1.6-0.6
	c0.8,0,1.3,0.3,1.6,0.7c0.5-0.5,1.2-0.7,1.8-0.7c1.9,0,2,1.5,2,2.2v3.9h-1.2C423.2,17.9,423.2,17.8,423.2,17.8z M426.5,14.1h2.6
	c-0.1-1.2-0.7-1.5-1.2-1.5C427,12.7,426.6,13.3,426.5,14.1z M429.9,16.7l0.2,1c-0.5,0.2-1.3,0.3-1.8,0.3c-2.4,0-2.9-1.6-2.9-3.2
	s0.7-3,2.7-3c1.2,0,2.2,0.8,2.3,2.7v0.6h-3.8c0,1.2,0.7,1.9,1.8,1.9C428.7,16.9,429.2,16.9,429.9,16.7L429.9,16.7z M434.5,12.9
	c-0.3-0.1-0.6-0.1-0.8-0.1c-0.7,0-1.1,0.4-1.4,0.6v4.3h-1.2v-6h1.2v0.5c0.3-0.3,0.8-0.6,1.4-0.6c0.3,0,0.7,0,1,0.2
	C434.7,11.9,434.5,12.9,434.5,12.9z M437.9,16.9c0.5,0,0.8,0,1.4-0.2l0.2,1c-0.5,0.1-1,0.2-1.5,0.2c-2.3,0-3-1.5-3-3.1
	c0-1.7,1-3,3-3c0.5,0,1,0.1,1.5,0.2l-0.2,1c-0.6-0.1-0.9-0.2-1.3-0.2c-1.2,0-1.8,0.9-1.9,2C436.1,15.8,436.5,16.9,437.9,16.9z
	 M441.1,14.1h2.6c-0.1-1.2-0.7-1.5-1.2-1.5C441.6,12.7,441.2,13.3,441.1,14.1z M444.5,16.7l0.2,1c-0.5,0.2-1.3,0.3-1.8,0.3
	c-2.4,0-2.9-1.6-2.9-3.2s0.7-3,2.7-3c1.2,0,2.2,0.8,2.3,2.7v0.6h-4c0,1.2,0.7,1.9,1.8,1.9C443.3,16.9,443.8,16.9,444.5,16.7
	L444.5,16.7z M448.8,12.8h-1.6v2.9c0,0.6,0.1,1,0.7,1.1c0.4,0,0.7,0,1-0.1l0.1,1c-0.4,0.1-0.9,0.1-1.1,0.1c-1.4-0.1-1.9-0.8-1.9-1.9
	v-3.2h-0.9V12l0.9-0.1v-1.4h1.2v1.3h1.6L448.8,12.8L448.8,12.8z M452.2,16.9c1.2,0,1.6-1,1.6-2.1c0-1-0.4-2.1-1.6-2.1
	s-1.6,1.1-1.6,2.1C450.5,15.9,451,16.9,452.2,16.9z M452.2,11.7c1.9,0,2.8,1.4,2.8,3.1c0,1.6-0.7,3.1-2.8,3.1c-2,0-2.8-1.5-2.8-3.1
	S450.3,11.8,452.2,11.7z M458.5,16.9c1.2,0,1.6-1,1.6-2.1c0-1-0.4-2.1-1.6-2.1s-1.6,1.1-1.6,2.1C456.9,15.9,457.3,16.9,458.5,16.9z
	 M458.5,11.7c1.9,0,2.8,1.4,2.8,3.1c0,1.6-0.7,3.1-2.8,3.1c-2,0-2.8-1.5-2.8-3.1S456.6,11.8,458.5,11.7z M462.2,9.7h1.1v8.1h-1.1
	V9.7z M464.5,16.6c0.7,0.2,1.3,0.3,1.7,0.3c0.5,0,0.9-0.1,1-0.7c0-0.6-0.6-0.8-1.3-1.1c-0.8-0.3-1.7-0.8-1.6-1.9
	c0-0.6,0.4-1.6,2.1-1.6c0.5,0,1.2,0.1,1.7,0.2l-0.2,1c-0.6-0.2-1.1-0.2-1.6-0.2s-0.9,0.2-0.9,0.6c0,0.4,0.3,0.6,1.1,0.9
	c0.8,0.3,1.9,0.8,1.9,2c0,0.8-0.6,1.7-2.2,1.7c-0.5,0-1.3-0.1-1.9-0.3L464.5,16.6L464.5,16.6z M420.4,21.7c0,0.4-0.1,0.7-0.4,0.9
	c-0.3,0.2-0.6,0.3-1.1,0.3h-0.3l-0.3,1.3H418l0.7-3.3h0.8c0.3,0,0.6,0.1,0.7,0.2S420.4,21.4,420.4,21.7L420.4,21.7z M418.7,22.5h0.3
	c0.3,0,0.6-0.1,0.8-0.2c0.2-0.2,0.3-0.4,0.3-0.6s-0.1-0.3-0.2-0.4s-0.3-0.1-0.5-0.1H419L418.7,22.5L418.7,22.5z M420.9,24.1h-0.4
	l0.8-3.5h0.4L420.9,24.1z M423,21.6c0.2,0,0.3,0.1,0.4,0.1l0.3,0.3l0.2-0.4h0.3l-0.5,2.5h-0.3l0.1-0.5c-0.3,0.4-0.6,0.5-0.9,0.5
	c-0.2,0-0.4-0.1-0.5-0.2c-0.1-0.2-0.2-0.4-0.2-0.6c0-0.3,0-0.6,0.2-0.9c0.1-0.3,0.3-0.5,0.5-0.6C422.6,21.7,422.8,21.6,423,21.6z
	 M422.6,23.9c0.2,0,0.3-0.1,0.4-0.2c0.2-0.2,0.3-0.3,0.4-0.6c0.1-0.2,0.1-0.5,0.1-0.7s-0.1-0.3-0.1-0.4c-0.1-0.1-0.2-0.2-0.3-0.2
	c-0.2,0-0.3,0.1-0.5,0.2c-0.1,0.1-0.3,0.3-0.3,0.5c-0.1,0.2-0.1,0.5-0.1,0.7s0,0.3,0.1,0.4C422.4,23.8,422.5,23.9,422.6,23.9z
	 M425.1,23.9c0.1,0,0.2,0,0.3-0.1v0.3c-0.1,0-0.1,0.1-0.2,0.1H425c-0.2,0-0.3-0.1-0.4-0.1c-0.1-0.1-0.2-0.2-0.2-0.4
	c0-0.1,0-0.2,0.1-0.4l0.3-1.4h-0.4v-0.2l0.4-0.2l0.3-0.5h0.2l-0.1,0.6h0.6l-0.1,0.3h-0.6l-0.3,1.4c0,0.1-0.1,0.2-0.1,0.3
	s0,0.2,0.1,0.2C425,23.8,425,23.9,425.1,23.9L425.1,23.9z"/>
<path class="st0" d="M425.5,25.2c-0.1,0-0.2,0-0.3-0.1v-0.3c0.1,0,0.2,0.1,0.3,0.1c0.1,0,0.2-0.1,0.3-0.2c0-0.1,0.1-0.2,0.2-0.4
	l0.5-2.5h-0.4v-0.2l0.5-0.2l0.1-0.2c0.1-0.3,0.2-0.5,0.3-0.7c0.1-0.1,0.3-0.2,0.6-0.2h0.2c0.1,0,0.2,0.1,0.2,0.1l-0.1,0.3
	c-0.1-0.1-0.2-0.1-0.3-0.1c-0.1,0-0.2,0.1-0.3,0.1c-0.1,0.1-0.1,0.2-0.2,0.4l-0.1,0.3h0.6l-0.1,0.3H427l-0.5,2.5
	c-0.1,0.3-0.2,0.5-0.3,0.6C425.9,25.2,425.7,25.2,425.5,25.2L425.5,25.2z M428.6,21.6c0.3,0,0.5,0.1,0.7,0.3
	c0.2,0.2,0.3,0.4,0.3,0.7s-0.1,0.6-0.2,0.8c-0.1,0.3-0.3,0.5-0.5,0.6c-0.2,0.2-0.4,0.2-0.6,0.2c-0.3,0-0.5-0.1-0.7-0.3
	c-0.2-0.2-0.3-0.4-0.3-0.7s0.1-0.6,0.2-0.8c0.1-0.3,0.3-0.5,0.5-0.6S428.4,21.6,428.6,21.6z M429.2,22.5c0-0.2-0.1-0.3-0.2-0.4
	s-0.2-0.2-0.4-0.2s-0.3,0.1-0.5,0.2c-0.1,0.1-0.2,0.3-0.3,0.5c-0.1,0.2-0.1,0.4-0.1,0.7c0,0.2,0.1,0.4,0.2,0.5s0.2,0.2,0.4,0.2
	s0.3-0.1,0.4-0.2s0.2-0.3,0.3-0.5C429.1,23,429.2,22.8,429.2,22.5z M431.5,21.6h0.3l-0.1,0.4h-0.3c-0.2,0-0.3,0.1-0.4,0.1
	s-0.2,0.2-0.3,0.4c-0.1,0.2-0.2,0.4-0.2,0.5l-0.3,1.1h-0.4l0.5-2.5h0.3l-0.1,0.5c0.1-0.2,0.2-0.3,0.3-0.3c0.1-0.1,0.2-0.1,0.2-0.2
	H431.5z M433.2,24.1l0.3-1.6c0-0.2,0.1-0.3,0.1-0.3c0-0.1,0-0.2-0.1-0.3c-0.1-0.1-0.1-0.1-0.3-0.1s-0.3,0.1-0.4,0.1
	c-0.1,0.1-0.2,0.2-0.3,0.4c-0.1,0.2-0.2,0.4-0.2,0.6l-0.2,1.1h-0.4l0.5-2.5h0.3l-0.1,0.5c0.1-0.2,0.3-0.3,0.4-0.4s0.3-0.1,0.4-0.1
	c0.2,0,0.3,0.1,0.4,0.2s0.2,0.2,0.2,0.4c0.1-0.2,0.3-0.3,0.4-0.4c0.2-0.1,0.3-0.2,0.5-0.2s0.4,0.1,0.5,0.2s0.2,0.3,0.2,0.5
	c0,0.1,0,0.2-0.1,0.4l-0.3,1.5h-0.4l0.3-1.6c0-0.2,0.1-0.3,0.1-0.3c0-0.1,0-0.2-0.1-0.2s-0.1-0.1-0.3-0.1s-0.3,0.1-0.4,0.1
	c-0.1,0.1-0.2,0.2-0.3,0.4c-0.1,0.2-0.2,0.4-0.2,0.6l-0.3,1.1C433.4,24.1,433.2,24.1,433.2,24.1z M439.8,22.1c0,0.4-0.1,0.8-0.3,1.1
	c-0.2,0.3-0.4,0.5-0.7,0.7c-0.3,0.2-0.7,0.3-1,0.3H437l0.7-3.3h0.8c0.4,0,0.7,0.1,1,0.4S439.8,21.7,439.8,22.1z M437.9,23.8
	c0.3,0,0.6-0.1,0.8-0.2c0.2-0.2,0.4-0.3,0.5-0.6c0.1-0.3,0.2-0.6,0.2-0.9s-0.1-0.6-0.2-0.7c-0.2-0.2-0.4-0.3-0.7-0.3h-0.4l-0.6,2.7
	H437.9L437.9,23.8z M441.4,21.6c0.3,0,0.5,0.1,0.7,0.3c0.2,0.2,0.3,0.4,0.3,0.7s-0.1,0.6-0.2,0.8c-0.1,0.3-0.3,0.5-0.5,0.6
	c-0.2,0.2-0.4,0.2-0.6,0.2c-0.3,0-0.5-0.1-0.7-0.3c-0.2-0.2-0.3-0.4-0.3-0.7s0.1-0.6,0.2-0.8c0.1-0.3,0.3-0.5,0.5-0.6
	S441.2,21.6,441.4,21.6z M442,22.5c0-0.2-0.1-0.3-0.2-0.4s-0.2-0.2-0.4-0.2s-0.3,0.1-0.5,0.2c-0.1,0.1-0.2,0.3-0.3,0.5
	c-0.1,0.2-0.1,0.4-0.1,0.7c0,0.2,0.1,0.4,0.2,0.5s0.2,0.2,0.4,0.2s0.3-0.1,0.4-0.2s0.2-0.3,0.3-0.5C441.9,23,442,22.8,442,22.5z
	 M443.7,24.2c-0.3,0-0.5-0.1-0.7-0.3c-0.2-0.2-0.3-0.4-0.3-0.7s0.1-0.6,0.2-0.8c0.1-0.3,0.3-0.5,0.5-0.6c0.2-0.2,0.4-0.2,0.7-0.2
	c0.2,0,0.4,0.1,0.6,0.1l-0.1,0.3c-0.2-0.1-0.4-0.1-0.5-0.1c-0.2,0-0.3,0.1-0.5,0.2s-0.3,0.3-0.3,0.5c-0.1,0.2-0.1,0.4-0.1,0.7
	c0,0.2,0.1,0.4,0.2,0.5s0.3,0.2,0.4,0.2s0.2,0,0.3-0.1c0.1,0,0.2-0.1,0.3-0.1V24C444.2,24.1,443.9,24.2,443.7,24.2z M445.7,21.6
	l-0.4,1.6c0,0.1-0.1,0.3-0.1,0.3c0,0.2,0.1,0.3,0.3,0.3c0.1,0,0.3-0.1,0.4-0.1c0.1-0.1,0.3-0.2,0.4-0.4c0.1-0.2,0.2-0.4,0.2-0.6
	l0.2-1.1h0.4l-0.5,2.5h-0.3l0.1-0.5L446,24c-0.1,0.1-0.3,0.1-0.4,0.1c-0.2,0-0.4-0.1-0.5-0.2s-0.2-0.3-0.2-0.5c0-0.1,0-0.2,0.1-0.4
	l0.3-1.6C445.3,21.4,445.7,21.6,445.7,21.6z M448.9,24.1l0.3-1.6c0-0.2,0.1-0.3,0.1-0.3c0-0.1,0-0.2-0.1-0.3
	c-0.1-0.1-0.1-0.1-0.3-0.1s-0.3,0.1-0.4,0.1c-0.1,0.1-0.2,0.2-0.3,0.4c-0.1,0.2-0.2,0.4-0.2,0.6l-0.2,1.1h-0.4l0.5-2.5h0.3l-0.1,0.5
	c0.1-0.2,0.3-0.3,0.4-0.4s0.3-0.1,0.4-0.1c0.2,0,0.3,0.1,0.4,0.2s0.2,0.2,0.2,0.4c0.1-0.2,0.3-0.3,0.4-0.4c0.2-0.1,0.3-0.2,0.5-0.2
	s0.4,0.1,0.5,0.2s0.2,0.3,0.2,0.5c0,0.1,0,0.2-0.1,0.4l-0.3,1.5h-0.4l0.3-1.6c0-0.2,0.1-0.3,0.1-0.3c0-0.1,0-0.2-0.1-0.2
	s-0.1-0.1-0.3-0.1c-0.1,0-0.3,0.1-0.4,0.1c-0.1,0.1-0.2,0.2-0.3,0.4c-0.1,0.2-0.2,0.4-0.2,0.6l-0.3,1.1
	C449.1,24.1,448.9,24.1,448.9,24.1z M452.5,24.2c-0.3,0-0.5-0.1-0.7-0.3c-0.2-0.2-0.3-0.4-0.3-0.7s0.1-0.6,0.2-0.8
	c0.1-0.3,0.3-0.5,0.5-0.6c0.2-0.2,0.4-0.2,0.6-0.2s0.4,0.1,0.5,0.2s0.2,0.3,0.2,0.4c0,0.3-0.1,0.5-0.4,0.7s-0.6,0.2-1.1,0.2v0.2
	c0,0.2,0.1,0.4,0.2,0.5s0.2,0.2,0.4,0.2c0.1,0,0.2,0,0.3-0.1c0.1,0,0.2-0.1,0.4-0.2V24c-0.2,0.1-0.3,0.1-0.4,0.2L452.5,24.2
	L452.5,24.2z M452.8,21.9c-0.2,0-0.3,0.1-0.5,0.2s-0.3,0.4-0.3,0.6c0.4,0,0.6-0.1,0.8-0.1c0.2-0.1,0.3-0.2,0.3-0.4
	c0-0.1,0-0.2-0.1-0.2C453,21.9,452.9,21.9,452.8,21.9L452.8,21.9z M455.3,24.1l0.3-1.6c0-0.2,0.1-0.3,0.1-0.3c0-0.1,0-0.2-0.1-0.2
	c-0.1-0.1-0.2-0.1-0.3-0.1c-0.1,0-0.3,0.1-0.4,0.1c-0.2,0.1-0.3,0.2-0.3,0.4c-0.1,0.2-0.2,0.4-0.2,0.6l-0.2,1.1h-0.4l0.5-2.5h0.3
	l-0.1,0.5l0.4-0.4c0.1-0.1,0.3-0.1,0.4-0.1c0.2,0,0.4,0.1,0.5,0.2s0.2,0.3,0.2,0.5c0,0.1,0,0.3-0.1,0.4l-0.3,1.5L455.3,24.1z
	 M457.3,23.9c0.1,0,0.2,0,0.3-0.1v0.3c-0.1,0-0.1,0.1-0.2,0.1h-0.2c-0.2,0-0.3-0.1-0.4-0.1c-0.1-0.1-0.2-0.2-0.2-0.4
	c0-0.1,0-0.2,0.1-0.4l0.3-1.4h-0.4v-0.2l0.4-0.2l0.3-0.5h0.2l-0.1,0.6h0.6l-0.1,0.3h-0.6l-0.3,1.4c0,0.1-0.1,0.2-0.1,0.3
	s0,0.2,0.1,0.2S457.2,23.9,457.3,23.9L457.3,23.9z M459.3,21.6c0.2,0,0.3,0.1,0.4,0.1L460,22l0.2-0.4h0.3l-0.5,2.5h-0.3l0.1-0.5
	c-0.3,0.4-0.6,0.5-0.9,0.5c-0.2,0-0.4-0.1-0.5-0.2c-0.1-0.2-0.2-0.4-0.2-0.6c0-0.3,0.1-0.6,0.2-0.9s0.3-0.5,0.5-0.6
	C458.9,21.7,459.1,21.6,459.3,21.6z M458.9,23.9c0.2,0,0.3-0.1,0.4-0.2c0.2-0.2,0.3-0.3,0.4-0.6c0.1-0.2,0.1-0.5,0.1-0.7
	s-0.1-0.3-0.1-0.4c-0.1-0.1-0.2-0.2-0.3-0.2c-0.2,0-0.3,0.1-0.5,0.2c-0.1,0.1-0.3,0.3-0.3,0.5c-0.1,0.2-0.1,0.5-0.1,0.7
	s0,0.3,0.1,0.4C458.7,23.8,458.8,23.9,458.9,23.9z M461.4,23.9c0.1,0,0.2,0,0.3-0.1v0.3c-0.1,0-0.1,0.1-0.2,0.1h-0.2
	c-0.2,0-0.3-0.1-0.4-0.1c-0.1-0.1-0.2-0.2-0.2-0.4c0-0.1,0-0.2,0.1-0.4l0.3-1.4h-0.4v-0.2l0.4-0.2l0.3-0.5h0.2l-0.1,0.6h0.6
	l-0.1,0.3h-0.6l-0.3,1.4c0,0.1-0.1,0.2-0.1,0.3s0,0.2,0.1,0.2C461.3,23.8,461.3,23.9,461.4,23.9L461.4,23.9z M462.5,24.1h-0.4
	l0.5-2.5h0.4L462.5,24.1z M462.8,21c0-0.1,0-0.2,0.1-0.2s0.1-0.1,0.2-0.1s0.2,0.1,0.2,0.2s0,0.2-0.1,0.2c-0.1,0.1-0.1,0.1-0.2,0.1
	s-0.1,0-0.2-0.1C462.8,21.1,462.8,21,462.8,21z M464.7,21.6c0.3,0,0.5,0.1,0.7,0.3c0.2,0.2,0.3,0.4,0.3,0.7s-0.1,0.6-0.2,0.8
	c-0.1,0.3-0.3,0.5-0.5,0.6c-0.2,0.2-0.4,0.2-0.6,0.2c-0.3,0-0.5-0.1-0.7-0.3c-0.2-0.2-0.3-0.4-0.3-0.7s0.1-0.6,0.2-0.8
	c0.1-0.3,0.3-0.5,0.5-0.6C464.2,21.7,464.4,21.6,464.7,21.6z M465.2,22.5c0-0.2-0.1-0.3-0.2-0.4s-0.2-0.2-0.4-0.2s-0.3,0.1-0.5,0.2
	c-0.1,0.1-0.2,0.3-0.3,0.5c-0.1,0.2-0.1,0.4-0.1,0.7c0,0.2,0.1,0.4,0.2,0.5s0.2,0.2,0.4,0.2s0.3-0.1,0.4-0.2s0.2-0.3,0.3-0.5
	C465.2,23,465.2,22.8,465.2,22.5z M467.5,24.1l0.3-1.6c0-0.2,0.1-0.3,0.1-0.3c0-0.1,0-0.2-0.1-0.2c-0.1-0.1-0.2-0.1-0.3-0.1
	c-0.1,0-0.3,0.1-0.4,0.1c-0.1,0.1-0.3,0.2-0.3,0.4c-0.1,0.2-0.2,0.4-0.2,0.6l-0.2,1.1H466l0.5-2.5h0.3l-0.1,0.5l0.4-0.4
	c0.1-0.1,0.3-0.1,0.4-0.1c0.2,0,0.4,0.1,0.5,0.2s0.2,0.3,0.2,0.5c0,0.1,0,0.3-0.1,0.4l-0.3,1.5L467.5,24.1z M382.2,17.7
	c-0.1,0.1-0.2,0.1-0.2,0.2s0.1,0.2,0.2,0.2l5,2.4c0.1,0,0.2,0.1,0.2,0.1v-5.3c-0.1,0-0.2,0-0.2,0.1
	C387.2,15.4,382.2,17.7,382.2,17.7z M387.4,15.3v5.3c0.1,0,0.2,0,0.2-0.1l5-2.3c0.1-0.1,0.2-0.1,0.2-0.2s-0.1-0.2-0.2-0.2l-5-2.4
	C387.6,15.4,387.5,15.3,387.4,15.3 M382,10.9c0,0.1,0.1,0.2,0.2,0.2l5,2.4c0.1,0,0.2,0.1,0.2,0.1h0.2c0.1,0,0.1,0,0.2-0.1
	c0.5-0.3,0.2-0.1,4.9-2.3c0.1-0.1,0.2-0.1,0.2-0.2s-0.1-0.2-0.2-0.2l-5-2.4c-0.2-0.1-0.3-0.1-0.4,0l-5,2.3
	C382,10.7,382,10.8,382,10.9"/>
<path class="st2" d="M387.4,13.8v1.6c-0.1,0-0.2,0-0.2,0.1l-5,2.3c-0.1,0.1-0.2,0.1-0.2,0.2v-7.2c0,0.1,0.1,0.2,0.2,0.2l5,2.4
	c0.1,0,0.2,0.1,0.2,0.1h0.2C387.4,13.5,387.4,13.6,387.4,13.8"/>
<path class="st0" d="M1.3,6.8v19.8h20.2L41.3,6.8C41.3,6.8,1.3,6.8,1.3,6.8z M26.9,24.6v1.5h0.2v-0.6h0.3l0.4,0.6H28l-0.4-0.6
	c0.2,0,0.4-0.2,0.4-0.4c0-0.3-0.2-0.4-0.5-0.4h-0.6V24.6z M27.1,24.8h0.3c0.2,0,0.3,0,0.3,0.2s-0.2,0.3-0.4,0.3H27v-0.5H27.1z
	 M27.4,24.1c-0.7,0-1.3,0.5-1.3,1.3c0,0.7,0.6,1.3,1.3,1.3c0.7,0,1.3-0.6,1.3-1.3C28.7,24.6,28.1,24.1,27.4,24.1z M27.4,24.3
	c0.6,0,1,0.5,1,1.1s-0.5,1.1-1,1.1c-0.6,0-1.1-0.5-1.1-1.1C26.3,24.7,26.8,24.3,27.4,24.3z"/>
<path class="st1" d="M25.3,16.3h-0.9v-3.2h0.9c1.2,0,2.1,0.4,2.1,1.6C27.3,15.9,26.4,16.3,25.3,16.3 M15.9,18.6
	c-0.5,0-0.9-0.1-1.3-0.2l1.2-3.9l1.2,3.9C16.8,18.5,16.4,18.6,15.9,18.6 M25,10.6h-3.9V20l-3.4-9.4h-3.4l-2.9,7.8
	c-0.3-2-2.4-2.7-4-3.2c-1.1-0.3-2.2-0.8-2.2-1.4C5.2,13.4,5.8,13,7,13c0.8,0,1.5,0.1,2.9,0.8l1.4-2.4c-1.3-0.6-3-1.1-4.5-1.1
	c-1.7,0-3.1,0.5-3.9,1.4C2.3,12.3,2,13.1,2,14c0,1.2,0.4,2.1,1.4,2.7C4,17.4,5,17.8,5.9,18.1c1.1,0.3,2,0.6,2,1.3
	c0,0.2-0.1,0.4-0.3,0.6c-0.3,0.3-0.7,0.4-1.3,0.4c-1.1,0-1.9-0.2-3.3-0.9l-1.2,2.4C3.2,22.6,4.7,23,6.3,23h0.2
	c1.4,0,2.5-0.4,3.4-1.1l0.1-0.1l-0.4,1.1h3.6l0.6-1.8c0.6,0.2,1.3,0.3,2.1,0.3c0.7,0,1.4-0.1,2.1-0.3l0.6,1.8h5.8V19h1.3
	c3.1,0,4.9-1.6,4.9-4.2C30.6,11.9,28.8,10.6,25,10.6"/>
<defs>
	<filter id="Adobe_OpacityMaskFilter" filterUnits="userSpaceOnUse" x="63.2" y="4" width="35.7" height="25.1">
		<feColorMatrix  type="matrix" values="1 0 0 0 0  0 1 0 0 0  0 0 1 0 0  0 0 0 1 0"/>
	</filter>
</defs>
<mask maskUnits="userSpaceOnUse" x="63.2" y="4" width="35.7" height="25.1" id="d_00000137822832588113865110000000440286766415598526_">
	<g class="st3">
		<path class="st1" d="M63.2,4.2H99v25.1H63.2V4.2z"/>
	</g>
</mask>
<path class="st4" d="M78.1,6.9c1.2-1.2,2.8-2,4.5-2c2.4,0,4.4,1.3,5.5,3.3c1-0.4,2-0.7,3.1-0.7c4.3,0,7.7,3.5,7.7,7.8
	s-3.5,7.8-7.7,7.8c-0.5,0-1-0.1-1.5-0.2c-1,1.7-2.8,2.9-4.9,2.9c-0.9,0-1.7-0.2-2.5-0.6c-1,2.3-3.3,3.9-5.9,3.9
	c-2.8,0-5.1-1.8-6-4.2C70,25,69.6,25,69.2,25c-3.3,0-6-2.7-6-6c0-2.2,1.2-4.2,3-5.2c-0.4-0.9-0.6-1.8-0.6-2.8c0-3.8,3.1-7,7-7
	C74.8,4.2,76.8,5.3,78.1,6.9"/>
<path class="st5" d="M68.4,17.2C68.4,17.3,68.4,17.3,68.4,17.2l0.2,0.2c0.4,0.2,0.7,0.3,1.1,0.3c0.7,0,1.2-0.4,1.2-1s-0.5-0.8-1-0.9
	h-0.1c-0.4-0.1-0.7-0.2-0.7-0.5c0-0.2,0.2-0.4,0.5-0.4s0.7,0.1,0.9,0.2h0.1l0.1-0.4v-0.1c-0.3-0.2-0.7-0.3-1.1-0.3h-0.1
	c-0.7,0-1.1,0.4-1.1,1s0.5,0.8,1,1h0.1c0.4,0.1,0.7,0.2,0.7,0.5c0,0.2-0.2,0.4-0.5,0.4c-0.1,0-0.5,0-0.9-0.3c-0.1,0-0.1-0.1-0.1-0.1
	h-0.1L68.4,17.2 M79.2,17.2C79.1,17.3,79.2,17.3,79.2,17.2l0.2,0.2c0.4,0.2,0.7,0.3,1.1,0.3c0.7,0,1.2-0.4,1.2-1s-0.5-0.8-1-0.9
	h-0.1c-0.4-0.1-0.7-0.2-0.7-0.5c0-0.2,0.2-0.4,0.5-0.4s0.7,0.1,0.9,0.2h0.1l0.1-0.4v-0.1c-0.3-0.2-0.7-0.3-1.1-0.3h-0.1
	c-0.7,0-1.1,0.4-1.1,1s0.5,0.8,1,1h0.1c0.4,0.1,0.7,0.2,0.7,0.5c0,0.2-0.2,0.4-0.5,0.4c-0.1,0-0.5,0-0.9-0.3c-0.1,0-0.1-0.1-0.1-0.1
	h-0.1L79.2,17.2 M86.5,16c0,0.4-0.1,0.6-0.2,0.8c-0.1,0.2-0.3,0.3-0.6,0.3s-0.5-0.1-0.6-0.3c-0.1-0.2-0.2-0.5-0.2-0.8
	c0-0.4,0.1-0.6,0.2-0.8s0.3-0.3,0.6-0.3s0.5,0.1,0.6,0.3C86.4,15.3,86.5,15.6,86.5,16 M87.1,15.3c-0.1-0.2-0.2-0.4-0.3-0.5
	c-0.1-0.2-0.3-0.3-0.5-0.4c-0.2-0.1-0.4-0.1-0.7-0.1s-0.5,0-0.7,0.1s-0.3,0.2-0.5,0.4c-0.1,0.2-0.2,0.3-0.3,0.5
	C84,15.5,84,15.7,84,16c0,0.2,0,0.5,0.1,0.7c0.1,0.2,0.2,0.4,0.3,0.5c0.1,0.2,0.3,0.3,0.5,0.4s0.4,0.1,0.7,0.1c0.2,0,0.5,0,0.7-0.1
	s0.3-0.2,0.5-0.4c0.1-0.1,0.2-0.3,0.3-0.5c0.1-0.2,0.1-0.4,0.1-0.7S87.2,15.5,87.1,15.3 M92.2,17C92.1,16.9,92.1,17,92.2,17h-0.7
	c-0.3,0-0.5-0.1-0.7-0.3c-0.2-0.2-0.3-0.5-0.3-0.8s0.1-0.6,0.2-0.8s0.4-0.3,0.7-0.3c0.3,0,0.4,0,0.6,0.1h0.1
	c0.1-0.1,0.1-0.3,0.2-0.4v-0.1c-0.1,0-0.3-0.1-0.4-0.1h-0.5c-0.3,0-0.5,0-0.7,0.1s-0.4,0.2-0.5,0.4s-0.2,0.3-0.3,0.5
	c-0.1,0.2-0.1,0.4-0.1,0.7c0,0.5,0.1,0.9,0.4,1.2c0.3,0.3,0.7,0.5,1.2,0.5c0.3,0,0.6-0.1,0.9-0.2v-0.1L92.2,17 M93.2,15.6
	c0-0.2,0.1-0.4,0.2-0.5c0.1-0.2,0.3-0.3,0.6-0.3s0.5,0.1,0.6,0.3c0.1,0.1,0.1,0.3,0.1,0.5C94.7,15.6,93.2,15.6,93.2,15.6z
	 M95.3,15.2c-0.1-0.2-0.2-0.4-0.3-0.5c-0.1-0.1-0.3-0.2-0.4-0.3c-0.2-0.1-0.4-0.1-0.6-0.1c-0.3,0-0.5,0-0.7,0.1s-0.4,0.2-0.5,0.4
	s-0.2,0.3-0.3,0.5c-0.1,0.2-0.1,0.4-0.1,0.7c0,0.2,0,0.5,0.1,0.7s0.2,0.4,0.3,0.5c0.1,0.1,0.3,0.3,0.5,0.3c0.2,0.1,0.5,0.1,0.8,0.1
	c0.6,0,0.9-0.1,1-0.2V17c0-0.1-0.1,0-0.1,0c-0.1,0.1-0.4,0.2-0.9,0.2c-0.3,0-0.6-0.1-0.7-0.2c-0.2-0.2-0.2-0.4-0.2-0.7h2.1
	c0,0,0.1,0,0.1-0.1S95.4,15.7,95.3,15.2z M76.6,15.6c0-0.2,0.1-0.4,0.2-0.5c0.1-0.2,0.3-0.3,0.6-0.3s0.5,0.1,0.6,0.3
	c0.1,0.1,0.1,0.3,0.1,0.5C78.1,15.6,76.6,15.6,76.6,15.6z M78.7,15.2c-0.1-0.2-0.2-0.4-0.3-0.5c-0.1-0.1-0.3-0.2-0.4-0.3
	c-0.2-0.1-0.4-0.1-0.6-0.1c-0.3,0-0.5,0-0.7,0.1s-0.4,0.2-0.5,0.4s-0.2,0.3-0.3,0.5c-0.1,0.2-0.1,0.4-0.1,0.7c0,0.2,0,0.5,0.1,0.7
	s0.2,0.4,0.3,0.5c0.1,0.1,0.3,0.3,0.5,0.3c0.2,0.1,0.5,0.1,0.8,0.1c0.6,0,0.9-0.1,1-0.2V17c0-0.1-0.1,0-0.1,0
	c-0.1,0.1-0.4,0.2-0.9,0.2c-0.3,0-0.6-0.1-0.7-0.2c-0.2-0.2-0.2-0.4-0.2-0.7h2.1c0,0,0.1,0,0.1-0.1C78.7,16.1,78.8,15.7,78.7,15.2z
	 M72.1,17L72,16.9c0-0.1-0.1-0.2-0.1-0.3c0-0.2,0.1-0.3,0.2-0.4c0,0,0.2-0.2,0.6-0.2h0.6v1c0,0-0.3,0.1-0.6,0.1
	C72.3,17.1,72.1,17,72.1,17z M72.9,15.5h-0.3c-0.2,0-0.4,0-0.5,0.1c-0.2,0-0.3,0.1-0.4,0.2l-0.3,0.3c-0.1,0.1-0.1,0.3-0.1,0.5
	s0,0.3,0.1,0.5l0.3,0.3c0.1,0.1,0.3,0.1,0.4,0.2c0.2,0,0.3,0.1,0.6,0.1c0.2,0,0.4,0,0.6-0.1c0.2,0,0.3-0.1,0.5-0.1h0.1
	c0.1,0,0-0.1,0-0.1v-1.9c0-0.4-0.1-0.7-0.3-0.9c-0.2-0.2-0.5-0.3-1-0.3c-0.2,0-0.4,0-0.6,0.1c0,0-0.5,0.1-0.6,0.2v0.1l0.1,0.4
	c0,0.1,0.1,0,0.1,0c0.4-0.2,0.9-0.2,0.9-0.2c0.2,0,0.4,0,0.5,0.1s0.2,0.2,0.2,0.5v0.1C73.1,15.5,72.9,15.5,72.9,15.5L72.9,15.5z
	 M89.7,14.5C89.7,14.4,89.7,14.4,89.7,14.5C89.7,14.4,89.7,14.4,89.7,14.5c-0.1-0.1-0.2-0.1-0.4-0.1c-0.3,0-0.4,0-0.5,0.1
	s-0.3,0.2-0.4,0.3v-0.3c0,0,0-0.1-0.1-0.1h-0.5c0,0-0.1,0-0.1,0.1v3.1c0,0,0,0.1,0.1,0.1h0.5c0,0,0.1,0,0.1-0.1V16
	c0-0.2,0-0.4,0.1-0.5c0-0.1,0.1-0.2,0.2-0.3s0.2-0.1,0.3-0.2h0.5c0,0,0.1,0,0.1-0.1S89.7,14.5,89.7,14.5"/>
<path class="st5" d="M84.6,13h-0.5c-0.4,0-0.7,0.1-0.9,0.3c-0.2,0.2-0.3,0.5-0.4,0.9v0.1h-0.5c0,0-0.1,0-0.1,0.1l-0.1,0.4
	c0,0,0,0.1,0.1,0.1h0.5l-0.5,2.6c0,0.2-0.1,0.4-0.1,0.5S82,18.2,82,18.3c-0.1,0.1-0.1,0.1-0.2,0.1h-0.6c0,0-0.1,0.4-0.2,0.4v0.1
	c0.1,0,0.1,0,0.2,0.1h0.3c0.2,0,0.4,0,0.5-0.1s0.3-0.1,0.4-0.3c0.1-0.1,0.2-0.3,0.3-0.5c0.1-0.2,0.1-0.4,0.2-0.7l0.5-2.6H84
	c0,0,0.1,0,0.1-0.1l0.1-0.4c0,0,0-0.1-0.1-0.1h-0.7c0,0,0-0.2,0.1-0.5c0-0.1,0.1-0.2,0.1-0.2s0.1-0.1,0.2-0.1h0.6L84.6,13
	C84.6,13.1,84.6,13,84.6,13 M75.3,17.5C75.3,17.6,75.3,17.6,75.3,17.5l-0.6,0.1c0,0-0.1,0-0.1-0.1v-4.4c0,0,0-0.1,0.1-0.1h0.6
	c0,0,0.1,0,0.1,0.1L75.3,17.5"/>
<path class="st0" d="M130.8,14c0,0.4,0,0.8,0.1,1s0.2,0.5,0.4,0.8c0.1,0.1,0.1,0.2,0.1,0.3s-0.1,0.2-0.2,0.3l-0.7,0.5
	c-0.1,0.1-0.2,0.1-0.3,0.1s-0.2-0.1-0.3-0.2c-0.2-0.2-0.3-0.3-0.4-0.5c-0.1-0.2-0.2-0.4-0.3-0.7c-0.9,1-2,1.5-3.3,1.5
	c-0.9,0-1.7-0.3-2.2-0.8s-0.8-1.3-0.8-2.2c0-1,0.3-1.7,1-2.3s1.6-0.9,2.7-0.9c0.4,0,0.8,0,1.2,0.1s0.8,0.1,1.3,0.2v-0.8
	c0-0.9-0.2-1.4-0.5-1.8c-0.4-0.3-1-0.5-1.8-0.5c-0.4,0-0.8,0-1.2,0.1s-0.8,0.2-1.2,0.4c-0.2,0.1-0.3,0.1-0.4,0.1h-0.2
	c-0.2,0-0.2-0.1-0.2-0.3V8c0-0.2,0-0.3,0.1-0.4s0.2-0.2,0.3-0.2c0.4-0.2,0.9-0.4,1.4-0.5s1.1-0.2,1.7-0.2c1.3,0,2.3,0.3,2.9,0.9
	s0.9,1.5,0.9,2.8L130.8,14z M126.3,15.7c0.4,0,0.8-0.1,1.2-0.2c0.4-0.1,0.8-0.4,1.1-0.7c0.2-0.2,0.3-0.4,0.4-0.7
	c0.1-0.3,0.1-0.6,0.1-1v-0.5c-0.3-0.1-0.7-0.1-1-0.2c-0.4,0-0.7-0.1-1.1-0.1c-0.8,0-1.3,0.1-1.7,0.4s-0.5,0.7-0.5,1.3
	c0,0.5,0.1,0.9,0.4,1.2C125.4,15.6,125.8,15.7,126.3,15.7z M135.3,16.9c-0.2,0-0.3,0-0.4-0.1c-0.1-0.1-0.2-0.2-0.2-0.4L132,7.7
	c-0.1-0.2-0.1-0.4-0.1-0.4c0-0.2,0.1-0.3,0.3-0.3h1.1c0.2,0,0.4,0,0.4,0.1c0.1,0.1,0.2,0.2,0.2,0.4l1.9,7.4l1.7-7.4
	c0.1-0.2,0.1-0.4,0.2-0.4C137.9,7,138,7,138.2,7h0.9c0.2,0,0.4,0,0.4,0.1c0.1,0.1,0.2,0.2,0.2,0.4l1.8,7.5l1.9-7.5
	c0.1-0.2,0.1-0.4,0.2-0.4C143.8,7,144,7,144.2,7h1c0.2,0,0.3,0.1,0.3,0.3v0.2c0,0.1,0,0.2-0.1,0.3l-2.7,8.7
	c-0.1,0.2-0.1,0.4-0.2,0.4s-0.2,0.1-0.4,0.1h-1c-0.2,0-0.4,0-0.4-0.1s-0.2-0.2-0.2-0.4l-1.7-7.2l-1.7,7.2c-0.1,0.2-0.1,0.4-0.2,0.4
	s-0.2,0.1-0.4,0.1h-1.2V16.9z M149.7,17.2c-0.6,0-1.2-0.1-1.7-0.2s-1-0.3-1.3-0.4c-0.2-0.1-0.3-0.2-0.3-0.3s-0.1-0.2-0.1-0.3v-0.6
	c0-0.2,0.1-0.3,0.3-0.3h0.2c0.1,0,0.2,0.1,0.3,0.1c0.4,0.2,0.8,0.3,1.2,0.4c0.4,0.1,0.9,0.1,1.3,0.1c0.7,0,1.3-0.1,1.6-0.4
	c0.4-0.2,0.6-0.6,0.6-1.1c0-0.3-0.1-0.6-0.3-0.8s-0.6-0.4-1.1-0.6l-1.6-0.5c-0.8-0.3-1.4-0.6-1.8-1.1c-0.4-0.5-0.6-1-0.6-1.6
	c0-0.5,0.1-0.9,0.3-1.2c0.2-0.4,0.5-0.7,0.8-0.9c0.3-0.3,0.7-0.4,1.2-0.6c0.4-0.1,0.9-0.2,1.4-0.2h0.8c0.3,0,0.5,0.1,0.7,0.1
	c0.2,0.1,0.4,0.1,0.6,0.2c0.2,0.1,0.4,0.1,0.5,0.2c0.2,0.1,0.3,0.2,0.3,0.3c0.1,0.1,0.1,0.2,0.1,0.4v0.5c0,0.2-0.1,0.4-0.3,0.4
	c-0.1,0-0.2,0-0.4-0.1c-0.6-0.3-1.4-0.4-2.2-0.4c-0.6,0-1.1,0.1-1.5,0.3c-0.3,0.2-0.5,0.5-0.5,1c0,0.3,0.1,0.6,0.3,0.8
	s0.6,0.4,1.2,0.6l1.6,0.5c0.8,0.3,1.4,0.6,1.7,1.1s0.5,1,0.5,1.6c0,0.5-0.1,0.9-0.3,1.3c-0.2,0.4-0.5,0.7-0.8,1
	c-0.3,0.3-0.8,0.5-1.2,0.6C150.8,17.1,150.3,17.2,149.7,17.2z M151.8,22.6c-3.7,2.7-9,4.2-13.7,4.2c-6.5,0-12.3-2.4-16.7-6.4
	c-0.3-0.3,0-0.7,0.4-0.5c4.8,2.8,10.6,4.4,16.7,4.4c4.1,0,8.6-0.9,12.7-2.6C151.9,21.5,152.4,22.2,151.8,22.6L151.8,22.6z"/>
<path class="st0" d="M153.4,20.9c-0.5-0.6-3.1-0.3-4.3-0.1c-0.4,0-0.4-0.3-0.1-0.5c2.1-1.5,5.6-1.1,6-0.6s-0.1,4-2.1,5.6
	c-0.3,0.3-0.6,0.1-0.5-0.2C152.8,24,153.8,21.5,153.4,20.9L153.4,20.9z M178.5,29.4l-0.5,1.5c0,0.1-0.1,0.1-0.1,0.1H177
	c-0.1,0-0.1,0-0.1-0.1l1.8-5.1c0-0.1,0.1-0.1,0.1-0.4c0,0,0-0.1,0.1-0.1h1.2c0.1,0,0.1,0,0.1,0.1l2.1,5.6c0,0.1,0,0.1-0.1,0.1h-0.9
	c-0.1,0-0.1,0-0.1-0.1l-0.5-1.5h-2.1v-0.1H178.5z M180.3,28.4c-0.2-0.5-0.5-1.8-0.7-2.4c-0.1,0.5-0.5,1.6-0.7,2.4H180.3z
	 M182.6,28.8c0-1.2,1-2.2,2.5-2.2h0.4v-1.8c0-0.1,0-0.1,0.1-0.1h1c0.1,0,0.1,0,0.1,0.1v5.7c0,0.1,0,0.1-0.1,0.1
	c-0.5,0.2-1.2,0.4-1.7,0.4C183.5,31,182.6,30.2,182.6,28.8z M185.4,27.4c-0.1-0.1-0.2-0.1-0.4-0.1c-0.8,0-1.4,0.5-1.4,1.3
	c0,1,0.5,1.3,1.2,1.3c0.1,0,0.4,0,0.5-0.1L185.4,27.4C185.3,27.4,185.4,27.4,185.4,27.4L185.4,27.4z M191.4,28.7
	c0,1.3-0.9,2.2-2.1,2.2c-1.5,0-2.1-1.2-2.1-2.2c0-1.2,0.8-2.2,2.1-2.2C190.7,26.5,191.4,27.6,191.4,28.7z M188.3,28.7
	c0,0.8,0.4,1.4,1,1.4c0.5,0,1-0.4,1-1.3c0-0.7-0.3-1.4-1-1.4C188.7,27.4,188.3,27.9,188.3,28.7z M193.3,24.7v1.9
	c0.3-0.1,0.5-0.1,0.9-0.1c1.2,0,2.1,0.9,2.1,2.1c0,1.6-1.2,2.4-2.5,2.4c-0.4,0-0.9-0.1-1.3-0.2l-0.1-0.1v-6c0-0.1,0-0.1,0.1-0.1
	C192.5,24.6,193.3,24.7,193.3,24.7z M193.8,27.4c-0.3,0-0.4,0.1-0.5,0.1V30c0.1,0,0.2,0.1,0.4,0.1c0.7,0,1.4-0.4,1.4-1.4
	C195.1,27.8,194.6,27.4,193.8,27.4L193.8,27.4z M197.9,29c0,0.5,0.4,1.2,1.3,1.2c0.4,0,0.7-0.1,1.2-0.2h0.1v0.7c0,0.1,0,0.1-0.1,0.1
	c-0.4,0.1-0.7,0.2-1.3,0.2c-1.6,0-2.1-1.2-2.1-2.1c0-1.2,0.7-2.2,2.1-2.2c1.3,0,1.8,1,1.8,1.8V29c0,0,0,0.1-0.1,0.1H198L197.9,29
	L197.9,29z M199.1,28.2h0.5v-0.1c0-0.2-0.1-0.8-0.8-0.8c-0.5,0-0.9,0.4-1,0.9H199.1z M188.7,10.3l5.5,13.4h-3.6l-1.6-4.4h-4
	L188.7,10.3L188.7,10.3z M185.8,2.5L177,23.7V2.5L185.8,2.5L185.8,2.5z M200.6,2.5v21.2L192,2.5L200.6,2.5L200.6,2.5z M242,14.5
	c-0.9,0-1.6,0.3-2.2,0.8v-0.7h-2v7.7h2.1v-4.9c0.3-0.4,1-0.9,1.9-0.9c0.3,0,0.6,0,0.8,0.1v-2C242.4,14.5,242.3,14.5,242,14.5
	 M224,20c0.5,0.5,1.3,0.8,2.1,0.8c0.5,0,1-0.3,1-0.6c0-1.2-3.7-0.8-3.7-3.3c0-1.5,1.4-2.4,2.9-2.4c1,0,2.1,0.4,2.6,0.8l-0.9,1.5
	c-0.4-0.3-0.9-0.5-1.5-0.5s-1,0.2-1,0.6c0,1,3.7,0.6,3.7,3.3c0,1.5-1.4,2.4-3.1,2.4c-1.1,0-2.2-0.4-3.1-1C223,21.6,224,20,224,20z
	 M237,18.4c0-2.2-1.5-3.9-3.6-3.9c-2.3,0-3.7,1.9-3.7,4c0,2.4,1.7,4,4,4c1.2,0,2.4-0.5,3.2-1.4l-1.2-1.2c-0.4,0.4-1.1,0.9-1.9,0.9
	c-1.1,0-2-0.8-2.1-1.9h5.3V18.4 M231.7,17.5c0.1-0.7,0.8-1.4,1.6-1.4c0.9,0,1.4,0.7,1.5,1.4H231.7z M247.5,19.3l2.1-4.7h2.1
	l-3.5,7.7h-1.4l-3.5-7.7h2.2L247.5,19.3L247.5,19.3z M253.6,11c0.7,0,1.4,0.6,1.4,1.3s-0.6,1.3-1.4,1.3c-0.8,0-1.4-0.6-1.4-1.3
	S252.8,11,253.6,11 M252.5,14.6h2.1v7.7h-2.1C252.5,22.3,252.5,14.6,252.5,14.6z M263.1,20.7c-0.9,1.2-2,1.7-3.5,1.7
	c-2.4,0-4.1-1.8-4.1-4c0-2.3,1.8-4,4.2-4c1.3,0,2.5,0.6,3.3,1.5l-1.4,1.3c-0.4-0.5-1-0.9-1.8-0.9c-1.2,0-2.1,0.9-2.1,2.1
	s0.9,2.1,2.1,2.1c0.9,0,1.5-0.5,1.9-1C261.7,19.5,263.1,20.7,263.1,20.7z M270.6,21.1c-0.7,0.9-2,1.4-3.2,1.4c-2.3,0-4-1.6-4-4
	c0-2.2,1.4-4,3.7-4c2.1,0,3.6,1.8,3.6,3.9V19h-5.3c0.1,1.1,1,1.9,2.1,1.9c0.9,0,1.6-0.5,1.9-0.9L270.6,21.1L270.6,21.1z M268.6,17.5
	c0-0.7-0.7-1.4-1.5-1.4c-0.9,0-1.5,0.6-1.6,1.4H268.6z M271.6,22.3v-7.7h2v0.6c0.6-0.5,1.3-0.8,2.2-0.8c1.1,0,2,0.5,2.7,1.3
	c0.5,0.6,0.8,1.4,0.8,2.7v3.9h-2.1v-4.1c0-0.8-0.2-1.2-0.5-1.4c-0.3-0.3-0.7-0.5-1.2-0.5c-0.9,0-1.6,0.5-1.9,0.9v5h-2V22.3z
	 M284.5,14.5c-2.4,0-4.5,2-4.5,4.5c0,1.3,0.5,2.5,1.4,3.3c0.3,0.3,0.8,0.3,1.2,0c0.5-0.4,1.2-0.6,1.9-0.6s1.4,0.2,1.9,0.6
	c0.4,0.3,0.9,0.2,1.2-0.1c0.9-0.8,1.4-2,1.4-3.3C289,16.5,287,14.5,284.5,14.5 M284.5,21.2c-1.3,0-2.3-1-2.3-2.3s0.9-2.3,2.3-2.3
	s2.3,1,2.3,2.3C286.7,20.2,285.8,21.2,284.5,21.2 M293,22.3h-1.5l-3.1-7.7h2.1l1.7,4.4l1.7-4.4h1.7l1.6,4.4l1.7-4.4h2.1l-3.1,7.7
	h-1.5l-1.6-4.4L293,22.3L293,22.3z M299.8,21.4v0.1h-0.3v0.8h-0.2v-0.8H299v-0.1H299.8z M300.4,22l0.4-0.6h0.1v0.9h-0.2v-0.5
	l-0.3,0.4h-0.1l-0.2-0.4v0.5h-0.2v-0.9h0.1L300.4,22L300.4,22z M345.1,7.2h0.4l1.2-1.2l0.1-0.5c-2.3-2-5.8-1.8-7.9,0.5
	c-0.6,0.6-1,1.4-1.2,2.2c0.1-0.1,0.3-0.1,0.4,0l2.5-0.4c0,0,0.1-0.2,0.2-0.2C342,6.3,343.9,6.2,345.1,7.2z"/>
<path class="st0" d="M348.6,8.2c-0.3-1-0.9-2-1.7-2.7l-1.7,1.7c0.7,0.6,1.2,1.5,1.1,2.5V10c0.9,0,1.5,0.7,1.5,1.5
	c0,0.9-0.7,1.5-1.5,1.5h-3.1l-0.3,0.3v1.9l0.3,0.3h3.1c2.2,0,4-1.8,4.1-4C350.4,10.2,349.7,8.9,348.6,8.2z"/>
<path class="st0" d="M340.1,15.5h3.1V13h-3.1c-0.2,0-0.4,0-0.6-0.1L339,13l-1.2,1.2l-0.1,0.4C338.4,15.2,339.2,15.5,340.1,15.5
	L340.1,15.5z"/>
<path class="st0" d="M340.1,7.5c-2.2,0-4,1.8-4,4c0,1.2,0.6,2.4,1.6,3.2l1.8-1.8c-0.8-0.4-1.1-1.3-0.8-2c0.4-0.8,1.3-1.1,2-0.8
	c0.3,0.2,0.6,0.4,0.8,0.8l1.8-1.8C342.5,8.1,341.4,7.5,340.1,7.5L340.1,7.5z M325.6,27.8c-0.7,0-1.5-0.3-2-0.8s-0.8-1.2-0.8-2
	c0-0.7,0.3-1.5,0.8-2s1.2-0.8,2-0.8c0.7,0,1.4,0.3,1.9,0.8l-0.5,0.5c-0.4-0.4-0.9-0.6-1.4-0.5c-0.5,0-1,0.2-1.4,0.6
	s-0.6,0.9-0.6,1.4s0.2,1,0.6,1.4c0.8,0.8,2,0.8,2.8,0c0.2-0.3,0.4-0.6,0.4-0.9h-1.8v-0.8h2.6v0.5c0,0.7-0.2,1.3-0.7,1.8
	S326.3,27.8,325.6,27.8z M331.6,27.3c-0.7,0.7-1.8,0.7-2.6,0c-0.3-0.3-0.5-0.8-0.5-1.3s0.2-0.9,0.5-1.3c0.7-0.7,1.8-0.7,2.6,0
	c0.3,0.3,0.5,0.8,0.5,1.3S331.9,27,331.6,27.3z M329.6,26.8c0.4,0.4,1,0.4,1.4,0c0.2-0.2,0.3-0.5,0.3-0.8s-0.1-0.6-0.3-0.8
	c-0.4-0.4-1-0.4-1.4,0c-0.2,0.2-0.3,0.5-0.3,0.8S329.4,26.6,329.6,26.8z M335.5,27.3c-0.7,0.7-1.8,0.7-2.6,0
	c-0.3-0.3-0.5-0.8-0.5-1.3s0.2-0.9,0.5-1.3c0.7-0.7,1.8-0.7,2.6,0c0.3,0.3,0.5,0.8,0.5,1.3S335.8,27,335.5,27.3z M333.5,26.8
	c0.4,0.4,1,0.4,1.4,0c0.2-0.2,0.3-0.5,0.3-0.8s-0.1-0.6-0.3-0.8c-0.4-0.4-1-0.4-1.4,0c-0.2,0.2-0.3,0.5-0.3,0.8
	S333.3,26.6,333.5,26.8z M338.1,29.4c-0.4,0-0.7-0.1-1-0.3c-0.3-0.2-0.5-0.4-0.6-0.7l0.7-0.3c0.1,0.2,0.2,0.3,0.3,0.4
	c0.2,0.1,0.4,0.2,0.6,0.2c0.3,0,0.5-0.1,0.7-0.3c0.2-0.2,0.3-0.5,0.3-0.8v-0.3c-0.2,0.3-0.6,0.4-0.9,0.4c-0.5,0-0.9-0.2-1.2-0.5
	c-0.3-0.3-0.5-0.8-0.5-1.3s0.2-0.9,0.5-1.3c0.3-0.3,0.7-0.5,1.2-0.5c0.2,0,0.4,0,0.6,0.1s0.3,0.2,0.4,0.3v-0.3h0.7v3.2
	c0,0.5-0.1,1-0.5,1.4C339,29.3,338.5,29.4,338.1,29.4L338.1,29.4z M338.1,27.1c0.3,0,0.5-0.1,0.7-0.3c0.2-0.2,0.3-0.5,0.3-0.8
	s-0.1-0.6-0.3-0.8c-0.2-0.2-0.4-0.3-0.7-0.3c-0.3,0-0.5,0.1-0.7,0.3c-0.2,0.2-0.3,0.5-0.3,0.8s0.1,0.6,0.3,0.8
	C337.6,27,337.8,27.1,338.1,27.1z M341.1,22.4v5.3h-0.8v-5.3H341.1z M343.3,27.8c-0.5,0-0.9-0.2-1.3-0.5c-0.3-0.3-0.5-0.8-0.5-1.3
	s0.2-0.9,0.5-1.3c0.3-0.3,0.8-0.5,1.2-0.5c0.2,0,0.4,0,0.6,0.1s0.3,0.2,0.5,0.3c0.1,0.1,0.2,0.2,0.3,0.4c0.1,0.1,0.1,0.2,0.2,0.4
	l0.1,0.2l-2.4,1c0.1,0.3,0.5,0.6,0.9,0.5c0.4,0,0.7-0.2,0.9-0.5l0.6,0.4c-0.2,0.2-0.4,0.4-0.6,0.5C343.9,27.7,343.6,27.8,343.3,27.8
	L343.3,27.8z M342.2,26l1.6-0.7c0-0.1-0.1-0.2-0.3-0.3c-0.1-0.1-0.3-0.1-0.4-0.1c-0.2,0-0.5,0.1-0.6,0.3
	C342.3,25.4,342.2,25.7,342.2,26L342.2,26z M348.9,27.8c-1.4,0-2.5-1.1-2.5-2.4v-0.1c0-1.4,1.1-2.5,2.4-2.5h0.1
	c0.7,0,1.3,0.3,1.8,0.8l-0.4,0.4c-0.3-0.4-0.8-0.6-1.4-0.6c-0.5,0-1,0.2-1.3,0.5c-0.4,0.4-0.6,0.9-0.5,1.4c0,0.5,0.2,1,0.5,1.4
	c0.4,0.4,0.8,0.5,1.3,0.5c0.6,0,1.1-0.3,1.5-0.7l0.4,0.4c-0.2,0.3-0.5,0.5-0.8,0.6C349.7,27.7,349.3,27.8,348.9,27.8z M352,27.7
	h-0.6v-4.9h0.6V27.7z M353,24.8c0.7-0.7,1.8-0.7,2.5,0c0.3,0.3,0.5,0.8,0.5,1.3s-0.2,0.9-0.5,1.3c-0.7,0.7-1.8,0.7-2.5,0
	c-0.3-0.3-0.5-0.8-0.5-1.3S352.7,25.1,353,24.8z M353.5,26.9c0.4,0.4,1.1,0.4,1.5,0c0.2-0.2,0.3-0.6,0.3-0.9s-0.1-0.6-0.3-0.9
	c-0.4-0.4-1.1-0.4-1.5,0c-0.2,0.2-0.3,0.6-0.3,0.9C353.2,26.4,353.3,26.7,353.5,26.9z M359.4,27.7h-0.6v-0.5
	c-0.1,0.2-0.3,0.3-0.4,0.4c-0.2,0.1-0.4,0.2-0.6,0.2c-0.4,0-0.7-0.1-0.9-0.4c-0.2-0.3-0.3-0.7-0.3-1v-2h0.6v1.9
	c0,0.6,0.3,0.9,0.8,0.9c0.2,0,0.5-0.1,0.6-0.3c0.2-0.2,0.2-0.5,0.2-0.7v-1.8h0.6L359.4,27.7L359.4,27.7z M361.6,27.8
	c-0.4,0-0.8-0.2-1.1-0.5c-0.3-0.3-0.5-0.8-0.5-1.3s0.2-0.9,0.5-1.3c0.3-0.3,0.7-0.5,1.1-0.5c0.2,0,0.5,0.1,0.7,0.2s0.3,0.2,0.5,0.4
	v-2h0.6v4.9h-0.6v-0.5c-0.1,0.2-0.3,0.3-0.5,0.4C362,27.8,361.8,27.8,361.6,27.8z M361.7,27.2c0.3,0,0.6-0.1,0.8-0.3
	c0.2-0.2,0.3-0.6,0.3-0.9s-0.1-0.6-0.3-0.9c-0.4-0.4-1-0.4-1.4-0.1l-0.1,0.1c-0.2,0.2-0.3,0.6-0.3,0.9s0.1,0.6,0.3,0.9
	C361.1,27.1,361.4,27.2,361.7,27.2z"/>
<path class="st6" d="M506.4,25.6h0.6c0.4,0,0.7-0.1,0.9-0.2c0.2-0.2,0.3-0.5,0.3-0.8s-0.2-0.6-0.4-0.7c-0.2-0.1-0.3-0.2-0.7-0.2
	h-0.9l-0.5,3.1h0.4L506.4,25.6L506.4,25.6z M506.4,25.3l0.2-1.2h0.7c0.1,0,0.3,0,0.3,0.1c0.1,0.1,0.2,0.3,0.2,0.5
	c0,0.3-0.1,0.5-0.3,0.6c-0.1,0.1-0.3,0.1-0.7,0.1h-0.4L506.4,25.3L506.4,25.3z M510.1,26.9v-0.5c0.2-1.1,0.2-1.1,0.2-1.2
	c0-0.4-0.4-0.6-0.9-0.6c-0.4,0-0.8,0.2-1,0.5l0.3,0.2c0.2-0.3,0.4-0.4,0.7-0.4c0.3,0,0.5,0.2,0.5,0.4v0.2h-0.4c-0.3,0-0.6,0-0.8,0.1
	c-0.4,0.1-0.6,0.4-0.6,0.7c0,0.4,0.3,0.7,0.7,0.7c0.3,0,0.6-0.2,0.9-0.5v0.4L510.1,26.9L510.1,26.9z M509.9,25.7
	c0,0.2-0.1,0.3-0.2,0.5c-0.2,0.3-0.4,0.4-0.7,0.4c-0.3,0-0.4-0.1-0.4-0.4c0-0.2,0.1-0.3,0.3-0.4c0.2-0.1,0.4-0.1,0.7-0.1H509.9
	L509.9,25.7z M511,26.9l0.1-0.5c0.1-0.5,0.1-0.7,0.2-0.9c0.2-0.4,0.4-0.6,0.7-0.6h0.1l0.1-0.4h-0.1c-0.4,0-0.6,0.2-0.9,0.7l0.1-0.6
	H511l-0.4,2.3H511z M513,24.8h0.5v-0.3H513l0.1-0.6h-0.3l-0.1,0.6h-0.3l-0.1,0.3h0.3l-0.2,1.1c-0.1,0.4-0.1,0.4-0.1,0.5
	c0,0.3,0.2,0.5,0.6,0.5h0.4v-0.3H513c-0.2,0-0.3-0.1-0.3-0.3V26L513,24.8L513,24.8z M515.5,26.9l0.2-1.3c0-0.2,0.1-0.3,0.1-0.4
	c0-0.4-0.3-0.7-0.7-0.7c-0.3,0-0.6,0.2-0.8,0.6l0.1-0.5h-0.3l-0.4,2.3h0.3l0.1-0.8c0.1-0.4,0.2-0.7,0.3-0.9c0.2-0.3,0.4-0.4,0.6-0.4
	c0.3,0,0.4,0.2,0.4,0.4v0.3l-0.2,1.3h0.3L515.5,26.9L515.5,26.9z M517.8,26.2c-0.2,0.3-0.4,0.4-0.7,0.4c-0.4,0-0.6-0.3-0.6-0.7v-0.2
	h1.7v-0.3c0-0.6-0.3-1-0.9-1c-0.7,0-1.2,0.6-1.2,1.4c0,0.6,0.4,1,1,1c0.4,0,0.7-0.2,1-0.6C518.1,26.2,517.8,26.2,517.8,26.2z
	 M516.6,25.5c0.1-0.4,0.4-0.7,0.7-0.7s0.6,0.3,0.6,0.6v0.1H516.6z M518.8,26.9l0.1-0.5c0.1-0.5,0.1-0.7,0.2-0.9
	c0.2-0.4,0.4-0.6,0.7-0.6h0.1l0.1-0.4h-0.1c-0.4,0-0.6,0.2-0.9,0.7l0.1-0.6h-0.4l-0.4,2.3H518.8L518.8,26.9z M494,18.1h-1.5v0.7h0.7
	c0,0.2,0,0.3-0.1,0.4s-0.3,0.2-0.5,0.2c-0.5,0-0.7-0.4-0.7-1.1c0-0.8,0.3-1.2,0.7-1.2c0.2,0,0.4,0.1,0.5,0.3
	c0.1,0.1,0.1,0.2,0.1,0.4l0.8-0.1c-0.1-0.8-0.6-1.2-1.4-1.2c-1,0-1.6,0.7-1.6,1.9c0,1.1,0.6,1.8,1.5,1.8c0.4,0,0.7-0.1,1-0.5
	c0.1,0.2,0.1,0.2,0.1,0.4h0.4C494,20.1,494,18.1,494,18.1z M496.3,16.3c-0.5,0-0.9,0.2-1.2,0.5c-0.3,0.3-0.4,0.8-0.4,1.3
	s0.1,1,0.4,1.4c0.3,0.3,0.7,0.5,1.1,0.5c0.5,0,0.9-0.2,1.2-0.5c0.3-0.3,0.4-0.8,0.4-1.3s-0.2-1-0.4-1.3
	C497.2,16.5,496.8,16.3,496.3,16.3z M496.3,17c0.2,0,0.4,0.1,0.5,0.3c0.1,0.2,0.2,0.5,0.2,0.9c0,0.8-0.2,1.2-0.7,1.2
	c-0.4,0-0.7-0.4-0.7-1.2C495.6,17.4,495.9,17,496.3,17z M499.6,19.3v-2.9h-0.9V20h2.3v-0.7C501,19.3,499.6,19.3,499.6,19.3z
	 M501.7,16.4V20h1.2c0.6,0,1-0.2,1.3-0.5s0.4-0.8,0.4-1.3s-0.2-1-0.5-1.3c-0.3-0.4-0.7-0.5-1.4-0.5H501.7z M502.6,17.1h0.3
	c0.3,0,0.5,0.1,0.7,0.3c0.2,0.2,0.3,0.5,0.3,0.8s-0.1,0.6-0.3,0.9c-0.2,0.2-0.4,0.3-0.7,0.3h-0.3C502.6,19.4,502.6,17.1,502.6,17.1z
	 M510.2,17.7c-0.1-0.4-0.1-0.6-0.3-0.9c-0.3-0.3-0.6-0.5-1.2-0.5c-0.5,0-0.9,0.2-1.2,0.5c-0.3,0.3-0.4,0.8-0.4,1.3
	c0,1.1,0.6,1.9,1.6,1.9c0.5,0,1-0.2,1.2-0.6c0.2-0.2,0.2-0.4,0.3-0.8h-0.8c-0.1,0.5-0.3,0.7-0.6,0.7c-0.5,0-0.7-0.3-0.7-1.1
	s0.2-1.2,0.7-1.2c0.2,0,0.4,0.1,0.5,0.3c0.1,0.1,0.1,0.2,0.1,0.4C509.4,17.7,510.2,17.7,510.2,17.7z M513.5,17.1v-0.7h-2.6V20h2.6
	v-0.7h-1.7v-0.8h1.4v-0.7h-1.4v-0.7C511.8,17.1,513.5,17.1,513.5,17.1z M515.2,18.6h0.6l0.6,1.4h1l-0.7-1.6c0.2-0.1,0.3-0.1,0.3-0.2
	c0.2-0.2,0.3-0.4,0.3-0.7c0-0.3-0.1-0.7-0.4-0.9c-0.2-0.2-0.5-0.2-1-0.2h-1.6V20h0.9L515.2,18.6L515.2,18.6z M515.2,17h0.5
	c0.3,0,0.4,0,0.5,0.1s0.2,0.2,0.2,0.3c0,0.2-0.1,0.3-0.2,0.4c-0.1,0.1-0.2,0.1-0.4,0.1h-0.5L515.2,17C515.3,17,515.2,17,515.2,17z
	 M520.5,16.4h-2.6v0.7h0.9V20h0.8v-2.9h0.9L520.5,16.4L520.5,16.4z M521.2,20h0.8v-3.6h-0.8C521.2,16.4,521.2,20,521.2,20z
	 M525.6,17.1v-0.7h-2.5V20h0.8v-1.4h1.4v-0.7h-1.4v-0.8C523.9,17.1,525.6,17.1,525.6,17.1z M526.4,20h0.8v-3.6h-0.8
	C526.4,16.4,526.4,20,526.4,20z M530.8,17.1v-0.7h-2.6V20h2.6v-0.7h-1.7v-0.8h1.4v-0.7h-1.4v-0.7C529.1,17.1,530.8,17.1,530.8,17.1z
	 M531.6,16.4V20h1.2c0.6,0,1-0.2,1.3-0.5s0.4-0.8,0.4-1.3s-0.2-1-0.5-1.3c-0.3-0.4-0.7-0.5-1.4-0.5H531.6z M532.5,17.1h0.4
	c0.3,0,0.5,0.1,0.6,0.3c0.2,0.2,0.3,0.5,0.3,0.8s-0.1,0.6-0.3,0.9c-0.2,0.2-0.4,0.3-0.7,0.3h-0.3C532.5,19.4,532.5,17.1,532.5,17.1z
	"/>
<path class="st0" d="M491,21.7h43.6v0.4H491V21.7z"/>
<path class="st6" d="M491.6,10.8l-0.6,2.9h2.1l0.7-2.9l0.2-0.9v0.9l0.1,2.9h1.5l1.5-2.9l0.4-0.9l-0.2,0.9l-0.6,2.9h2l0.6-2.9
	l0.4-1.6l0.6-2.6h-2.8l-1.2,2.6l-0.7,1.4V9.2l-0.1-2.6h-2.8L492,9.1L491.6,10.8z M502.1,9.1l0.2-0.8h-1.9l-0.2,0.8l-0.4,1.6
	l-0.6,2.9h1.9l0.6-2.9L502.1,9.1z M507.3,9.1c-0.3-0.4-0.8-0.8-1.8-0.9c-1.1-0.1-1.9,0.3-2.5,0.9c-0.5,0.4-0.8,1-1,1.6
	c-0.4,1.5,0.3,3,2.1,3c2.7,0.1,3.3-2.1,3.3-2.1h-2c-0.1,0.1-0.3,0.8-0.9,0.8c-0.7,0-0.8-0.9-0.5-1.7c0.2-0.7,0.7-1.2,1.2-1.3
	c0.6,0,0.6,0.8,0.5,0.9h2C507.6,10.3,507.7,9.7,507.3,9.1L507.3,9.1z M511.4,9.1l0.2-0.8c-0.3,0-0.6,0.1-0.9,0.1
	c-0.3,0.1-0.6,0.3-0.9,0.6l0.2-0.7h-1.7l-0.2,0.8l-0.4,1.6l-0.7,2.9h1.8l0.4-1.9c0.1-0.4,0.2-0.8,0.4-1c0.4-0.7,0.9-0.8,1.2-0.8
	c-0.1,0.2-0.2,0.5-0.3,0.8c-0.4,1.5,0.3,3,2.3,3.1c1.5,0,2.7-0.8,3.1-1.7c-0.1,0.6,0.2,1.7,2.7,1.7c2.8,0,3-1.7,3-2.1
	c0-0.5-0.2-0.8-0.4-1c-0.5-0.4-1.2-0.5-1.9-0.7c-0.9-0.2-0.7-0.9,0.1-0.9s0.6,0.7,0.6,0.7h1.8c0-0.1,0.1-0.4-0.1-0.8
	c-0.2-0.5-0.7-1-2.2-1c-1.1,0-2.1,0.3-2.5,1c-0.1,0.2-0.2,0.4-0.2,0.6c-0.1,0.4,0.1,0.8,0.3,1c0.5,0.6,1.5,0.8,1.9,0.8
	c1,0.2,0.7,1,0,1.1c-1.1,0-0.9-0.8-0.9-0.8h-3.5l1.6-0.6c0.2-0.1,0.3-0.1,0.3-0.3v-0.3c0.1-0.6-0.1-1.2-0.3-1.6
	c-0.4-0.5-1-0.9-1.9-1c-1.1-0.1-2,0.3-2.6,1l-0.3,0.3L511.4,9.1L511.4,9.1z M527.4,9.1c-0.4-0.5-1-0.9-1.9-1c-1.1-0.1-2,0.3-2.6,1
	c-0.5,0.5-0.8,1-0.9,1.6c-0.4,1.4,0.3,3,2.3,3.1c2.1,0.1,3.4-1.6,3.5-3.1C527.8,10.2,527.7,9.6,527.4,9.1L527.4,9.1z M534.3,9.1
	l0.2-0.8h-0.9l0.3-1.3h-1.8l-0.3,1.3h-1.1V8.2c0.1-0.4,0.1-0.6,0.7-0.6l0.2-1c0,0-1.5-0.2-2.1,0.3c-0.4,0.3-0.5,0.7-0.7,1.5h-0.9
	l-0.2,0.8l-0.1,0.5h1l-0.3,1.1l-0.6,2.9h1.9l0.6-2.9l0.3-1.1h1l-0.3,1.1l-0.3,1.5c-0.2,0.7,0.1,1,0.3,1.2c0.5,0.4,2,0.2,2,0.2
	l0.3-1.2c0,0-0.8,0.1-0.8-0.1V12l0.3-1.1l0.3-1.1h0.9L534.3,9.1L534.3,9.1z M534.9,9.1V8.9c0-0.3,0.2-0.5,0.5-0.5s0.5,0.2,0.5,0.5
	c0,0.1,0,0.2-0.1,0.2c-0.1,0.2-0.3,0.3-0.4,0.3C535.2,9.4,535,9.3,534.9,9.1z M535.9,9.1V8.9c0-0.3-0.3-0.6-0.6-0.6
	s-0.6,0.3-0.6,0.6c0,0.1,0,0.2,0.1,0.2c0.1,0.2,0.3,0.4,0.5,0.4C535.6,9.5,535.8,9.4,535.9,9.1z M535.2,9.1l0.1-0.2h0.1l0.1,0.2v0.1
	h0.1V9.1l-0.1-0.2c0.1,0,0.2-0.1,0.2-0.2s0-0.2-0.2-0.2h-0.2L535.2,9.1L535.2,9.1z M535.6,8.7c0,0.1-0.1,0.1-0.2,0.1h-0.1V8.6h0.1
	C535.5,8.7,535.6,8.7,535.6,8.7z M502.6,6.6h-1.9l-0.3,1.2h1.9C502.3,7.8,502.6,6.6,502.6,6.6z M512.6,10.8c0.3-0.8,0.8-1.4,1.4-1.4
	c0.5,0.1,0.7,0.7,0.5,1.4c-0.2,0.9-0.8,1.9-1.6,1.7C512.4,12.4,512.4,11.5,512.6,10.8L512.6,10.8z M523.9,10.8
	c0.3-0.8,0.8-1.4,1.4-1.4c0.5,0.1,0.7,0.7,0.5,1.4c-0.1,0.9-0.8,1.9-1.6,1.7C523.7,12.4,523.7,11.5,523.9,10.8L523.9,10.8z"/>
<path class="st0" d="M747.6,17.5v1.8c1.4,0,2.7-0.5,3.7-1.5c1-0.9,1.5-2.2,1.5-3.6h-1.9c0,0.9-0.4,1.7-1,2.3
	C749.3,17.1,748.4,17.5,747.6,17.5z M747.6,22.4c-0.9,0-1.7-0.3-2.3-0.9s-1-1.4-1-2.3s0.3-1.7,1-2.3c0.6-0.6,1.5-0.9,2.3-0.9v-1.8
	c-0.7,0-1.3,0.1-2,0.4c-0.6,0.3-1.2,0.6-1.7,1.1c-0.5,0.5-0.9,1-1.1,1.6c-0.3,0.6-0.4,1.3-0.4,1.9s0.1,1.3,0.4,1.9
	c0.3,0.6,0.6,1.2,1.1,1.6c0.5,0.5,1,0.8,1.7,1.1c0.6,0.3,1.3,0.4,2,0.4C747.6,24.2,747.6,22.4,747.6,22.4z"/>
<path class="st0" d="M747.6,22.4v1.8c1.4,0,2.7-0.5,3.6-1.5c1-0.9,1.5-2.2,1.5-3.5h-1.9c0,0.9-0.3,1.7-1,2.3
	C749.3,22.1,748.4,22.4,747.6,22.4L747.6,22.4z M747.6,12.4v1.8c1.4,0,2.7-0.5,3.6-1.5c1-0.9,1.5-2.2,1.5-3.5h-1.9
	c0,0.9-0.3,1.7-1,2.3C749.3,12.1,748.4,12.4,747.6,12.4L747.6,12.4z M752.8,12.4v1.8c1.4,0,2.7-0.5,3.6-1.5c1-0.9,1.5-2.2,1.5-3.5
	h-1.8c0,0.9-0.3,1.7-1,2.3C754.5,12.1,753.6,12.4,752.8,12.4z M766.5,16.7h1l0.2,0.5c0.1-0.1,0.3-0.2,0.4-0.3
	c0.1-0.1,0.3-0.1,0.5-0.2s0.4-0.1,0.6-0.1c0.3,0,0.6,0.1,0.9,0.2c0.3,0.1,0.6,0.3,0.8,0.5s0.4,0.5,0.5,0.8c0.3,0.7,0.3,1.4,0,2
	c-0.1,0.3-0.3,0.6-0.5,0.8c-0.2,0.2-0.5,0.4-0.8,0.5s-0.6,0.2-0.9,0.2c-0.2,0-0.4,0-0.6-0.1c-0.1,0-0.3-0.1-0.4-0.2
	c-0.1-0.1-0.2-0.2-0.4-0.2v2.2h-1.3C766.5,23.3,766.5,16.7,766.5,16.7z M769,20.6c0.2,0,0.3,0,0.5-0.1s0.3-0.2,0.4-0.3
	c0.2-0.2,0.4-0.6,0.4-1c0-0.2,0-0.4-0.1-0.5s-0.2-0.3-0.3-0.5c-0.1-0.1-0.3-0.2-0.4-0.3c-0.2-0.1-0.3-0.1-0.5-0.1s-0.3,0-0.5,0.1
	s-0.3,0.2-0.4,0.3c-0.2,0.2-0.4,0.6-0.4,1s0.1,0.7,0.4,1c0.1,0.1,0.3,0.2,0.4,0.3C768.7,20.6,768.8,20.6,769,20.6L769,20.6z
	 M774.6,21.8c-0.2,0-0.5,0-0.7-0.1s-0.4-0.2-0.5-0.4c-0.2-0.2-0.3-0.4-0.4-0.6c-0.1-0.2-0.1-0.5-0.1-0.7v-2.1h-0.8v-1h0.3
	c0.4,0,0.6-0.2,0.6-0.6v-0.7h1.1v1.2h1.1v1.1h-1.1v2.4c0,0.1,0.1,0.2,0.1,0.2l0.2,0.2c0.1,0,0.2,0.1,0.3,0.1h0.4v1.1
	c-0.1,0-0.1,0-0.2,0.1C774.9,21.8,774.8,21.8,774.6,21.8L774.6,21.8z M777.1,16.1c-0.2,0-0.3-0.1-0.5-0.2c-0.1-0.1-0.2-0.3-0.3-0.4
	c0-0.2,0-0.3,0.1-0.5c0.1-0.1,0.2-0.3,0.4-0.3c0.2-0.1,0.3-0.1,0.5,0c0.2,0,0.3,0.1,0.4,0.3c0.1,0.1,0.1,0.3,0.1,0.5
	s-0.1,0.3-0.2,0.4l-0.2,0.2H777.1z M776.4,16.7h1.3v5h-1.3V16.7z M778.9,16.7h1l0.2,0.5l0.3-0.3c0.1-0.1,0.2-0.1,0.4-0.2
	s0.3-0.1,0.5-0.1s0.5,0,0.7,0.1s0.3,0.1,0.5,0.2l0.3,0.3c0.1-0.1,0.3-0.2,0.4-0.3c0.2-0.1,0.3-0.2,0.5-0.2c0.2-0.1,0.4-0.1,0.6-0.1
	c0.6,0,1,0.2,1.3,0.5s0.5,0.9,0.5,1.5v3h-1.3v-2.9c0-0.3-0.1-0.5-0.3-0.7l-0.2-0.2c-0.1,0-0.2-0.1-0.3-0.1h-0.3
	c-0.1,0-0.2,0.1-0.3,0.1l-0.1,0.1c-0.2,0.2-0.3,0.5-0.3,0.7v2.9h-1.3v-2.9c0-0.3-0.1-0.5-0.3-0.7l-0.2-0.2c-0.1,0-0.2-0.1-0.3-0.1
	h-0.3c-0.1,0-0.2,0.1-0.3,0.1c0,0-0.1,0-0.1,0.1c-0.2,0.2-0.3,0.5-0.3,0.7v2.9h-1.3v-4.7L778.9,16.7z M788,16.1
	c-0.2,0-0.3,0-0.5-0.2c-0.1-0.1-0.2-0.3-0.3-0.4c0-0.2,0-0.3,0.1-0.5s0.2-0.3,0.4-0.3c0.2-0.1,0.3-0.1,0.5,0c0.2,0,0.3,0.1,0.4,0.3
	c0.1,0.1,0.1,0.3,0.1,0.5s-0.1,0.3-0.2,0.4l-0.2,0.2H788z M787.3,16.7h1.3v5h-1.3V16.7z M789.6,20.7l2.2-2.8h-2.2v-1.2h3.9v1
	l-2.2,2.8h2.4v1.2h-4v-1H789.6z M796.8,21.8c-0.3,0-0.7-0.1-1-0.2s-0.6-0.3-0.8-0.5s-0.4-0.5-0.6-0.8c-0.1-0.3-0.2-0.7-0.2-1
	s0.1-0.7,0.2-1c0.1-0.3,0.3-0.6,0.6-0.8c0.2-0.2,0.5-0.4,0.8-0.5s0.6-0.2,1-0.2c0.3,0,0.7,0.1,1,0.2s0.6,0.3,0.8,0.5
	s0.4,0.5,0.5,0.8s0.2,0.7,0.2,1v0.6h-3.6c0.1,0.2,0.2,0.5,0.4,0.6c0.2,0.2,0.5,0.3,0.8,0.2c0.1,0,0.3,0,0.4-0.1
	c0.1,0,0.2-0.1,0.3-0.1c0.1-0.1,0.2-0.1,0.2-0.2h1.3l-0.3,0.6c-0.1,0.2-0.3,0.4-0.5,0.5c-0.2,0.2-0.4,0.3-0.7,0.4
	C797.3,21.7,797.1,21.8,796.8,21.8L796.8,21.8z M798,18.8c-0.1-0.3-0.2-0.5-0.4-0.7s-0.5-0.3-0.8-0.3s-0.6,0.1-0.8,0.3
	c-0.2,0.2-0.4,0.4-0.4,0.7H798z M800.2,14.9h1.3v6.8h-1.3C800.2,21.7,800.2,14.9,800.2,14.9z M803.4,23.5H803v-1
	c0.2,0,0.5-0.1,0.7-0.2s0.3-0.3,0.4-0.5l0.1-0.3l-2-4.8h1.3l1.3,3.3l1.2-3.3h1.3c-0.4,0.9-0.7,1.7-1,2.5c-0.1,0.3-0.3,0.6-0.4,0.9
	c-0.1,0.3-0.2,0.6-0.3,0.8c-0.1,0.2-0.2,0.5-0.2,0.6c-0.1,0.2-0.1,0.3-0.1,0.3c-0.1,0.3-0.2,0.5-0.4,0.8c-0.1,0.2-0.2,0.4-0.4,0.5
	c-0.1,0.1-0.3,0.2-0.5,0.3C803.8,23.5,803.6,23.5,803.4,23.5L803.4,23.5z M761.8,14.2c-0.8,0-1.5,0.2-2.2,0.6s-1.1,1-1.4,1.7
	c-0.3,0.7-0.4,1.4-0.2,2.2c0.1,0.7,0.5,1.4,1.1,1.9c0.5,0.5,1.2,0.9,2,1s1.5,0.1,2.2-0.2c0.7-0.3,1.3-0.8,1.7-1.4s0.7-1.3,0.7-2.1
	c0-0.5-0.1-1-0.3-1.4c-0.2-0.5-0.5-0.9-0.8-1.2c-0.4-0.3-0.8-0.6-1.3-0.8S762.3,14.2,761.8,14.2z M761.8,20.5c-0.5,0-1-0.1-1.4-0.4
	s-0.8-0.6-0.9-1.1c-0.2-0.4-0.3-0.9-0.2-1.4s0.3-0.9,0.7-1.3c0.4-0.3,0.8-0.6,1.3-0.7c0.5-0.1,1-0.1,1.5,0.1s0.9,0.5,1.1,0.9
	c0.3,0.4,0.4,0.9,0.4,1.4c0,0.6-0.3,1.3-0.7,1.7S762.4,20.5,761.8,20.5L761.8,20.5z"/>
<g>
	<path id="Silver_Partner" class="st7" d="M559.8,27.8l0.4-0.3c0.3,0.4,0.6,0.6,1.1,0.6c0.6,0,0.9-0.3,0.9-0.8
		c0-0.4-0.2-0.6-0.7-0.7l-0.3-0.1c-0.7-0.2-1.1-0.5-1.1-1.1c0-0.7,0.5-1.1,1.3-1.1c0.6,0,1,0.2,1.3,0.6l-0.4,0.3
		c-0.2-0.3-0.5-0.5-1-0.5c-0.5,0-0.8,0.2-0.8,0.6c0,0.4,0.2,0.5,0.7,0.7l0.3,0.1c0.8,0.2,1.1,0.5,1.1,1.1c0,0.7-0.5,1.2-1.4,1.2
		C560.6,28.5,560.2,28.2,559.8,27.8z M563.3,24.5L563.3,24.5c0-0.2,0.1-0.3,0.3-0.3c0.2,0,0.3,0.1,0.3,0.3v0.1
		c0,0.2-0.1,0.3-0.3,0.3C563.4,24.8,563.3,24.7,563.3,24.5z M563.4,25.5h0.5v2.9h-0.5V25.5z M565.3,28.4c-0.3,0-0.5-0.2-0.5-0.5
		v-3.7h0.5V28h0.4v0.4H565.3z M566.9,28.4l-1-2.9h0.5l0.5,1.5l0.3,1h0l0.3-1l0.5-1.5h0.4l-1,2.9H566.9z M568.8,26.9
		c0-0.9,0.5-1.5,1.3-1.5c0.8,0,1.3,0.6,1.3,1.4v0.2h-2.1v0.1c0,0.5,0.3,0.9,0.9,0.9c0.4,0,0.7-0.2,0.8-0.5l0.3,0.2
		c-0.2,0.4-0.6,0.7-1.2,0.7C569.4,28.5,568.8,27.9,568.8,26.9z M569.3,26.7L569.3,26.7l1.6,0v-0.1c0-0.5-0.3-0.9-0.8-0.9
		C569.7,25.8,569.3,26.2,569.3,26.7z M572.2,28.4v-2.9h0.5V26h0c0.1-0.3,0.4-0.5,0.8-0.5h0.2v0.5h-0.3c-0.5,0-0.8,0.2-0.8,0.5v2
		H572.2z M575.4,28.4v-4h1.6c0.7,0,1.1,0.4,1.1,1.1c0,0.7-0.4,1.1-1.1,1.1h-1.1v1.7H575.4z M575.9,26.3h1.1c0.4,0,0.6-0.2,0.6-0.6
		v-0.3c0-0.4-0.2-0.6-0.6-0.6h-1.1V26.3z M580.9,28.4c-0.3,0-0.5-0.2-0.5-0.5h0c-0.1,0.4-0.4,0.5-0.8,0.5c-0.6,0-1-0.3-1-0.9
		c0-0.6,0.4-0.9,1.3-0.9h0.6v-0.3c0-0.4-0.2-0.6-0.7-0.6c-0.4,0-0.6,0.2-0.7,0.4l-0.3-0.3c0.2-0.3,0.5-0.6,1-0.6
		c0.7,0,1.1,0.4,1.1,1V28h0.3v0.4H580.9z M580.4,27.6v-0.5h-0.6c-0.5,0-0.8,0.2-0.8,0.4v0.1c0,0.3,0.2,0.5,0.6,0.5
		C580,28.1,580.4,27.9,580.4,27.6z M581.8,28.4v-2.9h0.5V26h0c0.1-0.3,0.4-0.5,0.8-0.5h0.2v0.5h-0.3c-0.5,0-0.8,0.2-0.8,0.5v2H581.8
		z M584.6,28.4c-0.3,0-0.5-0.2-0.5-0.5v-2.1h-0.5v-0.4h0.3c0.2,0,0.3-0.1,0.3-0.3v-0.5h0.4v0.8h0.6v0.4h-0.6V28h0.6v0.4H584.6z
		 M585.9,28.4v-2.9h0.5V26h0c0.1-0.3,0.4-0.5,0.8-0.5c0.6,0,1,0.4,1,1.1v1.9h-0.5v-1.8c0-0.5-0.2-0.8-0.7-0.8
		c-0.4,0-0.7,0.2-0.7,0.6v2H585.9z M588.9,26.9c0-0.9,0.5-1.5,1.3-1.5c0.8,0,1.3,0.6,1.3,1.4v0.2h-2.1v0.1c0,0.5,0.3,0.9,0.9,0.9
		c0.4,0,0.7-0.2,0.8-0.5l0.3,0.2c-0.2,0.4-0.6,0.7-1.2,0.7C589.5,28.5,588.9,27.9,588.9,26.9z M589.4,26.7L589.4,26.7l1.6,0v-0.1
		c0-0.5-0.3-0.9-0.8-0.9C589.8,25.8,589.4,26.2,589.4,26.7z M592.3,28.4v-2.9h0.5V26h0c0.1-0.3,0.4-0.5,0.8-0.5h0.2v0.5h-0.3
		c-0.5,0-0.8,0.2-0.8,0.5v2H592.3z"/>
	<path id="IBM_xAE__00000110461396670084088570000012998332288288768896_" class="st7" d="M560,19.7h7.3v1H560V19.7z M560,18.7h7.3
		v-1H560V18.7z M562,16.7h3.1v-1H562V16.7z M562,14.7h3.1v-1H562V14.7z M562,12.7h3.1v-1H562V12.7z M565.2,9.7H562v1h3.1V9.7z
		 M560,8.8h7.3v-1H560V8.8z M560,6.8h7.3v-1H560V6.8z M568.3,18.7h11.1c0.2-0.3,0.3-0.7,0.4-1h-11.5V18.7z M578.6,13.7h-8.2v1h9
		C579.2,14.3,578.9,14,578.6,13.7z M570.4,11.7v1h8.2c0.3-0.3,0.6-0.6,0.9-1H570.4z M579.4,7.7h-11.1v1h11.5
		C579.8,8.4,579.6,8,579.4,7.7z M576,5.7h-7.7v1h10.4C578,6.1,577,5.7,576,5.7z M570.4,10.7h3.1v-1h-3.1V10.7z M576.5,10.7h3.4
		c0.1-0.3,0.1-0.7,0.1-1h-3.5V10.7z M570.4,16.7h3.1v-1h-3.1V16.7z M576.5,15.7v1h3.5c0-0.4,0-0.7-0.1-1H576.5z M568.3,20.7h7.7
		c1,0,2-0.4,2.7-1h-10.4V20.7z M589.2,20.7l0.4-1h-0.7L589.2,20.7z M588.5,18.7h1.4l0.4-1h-2.1L588.5,18.7z M587.8,16.7h2.8l0.4-1
		h-3.5L587.8,16.7z M587.1,14.7h4.2l0.4-1h-4.9L587.1,14.7z M582.9,10.7h5.6l-0.4-1h-5.3V10.7z M590.5,8.8h7v-1h-6.7L590.5,8.8z
		 M591.5,5.7l-0.4,1h6.3v-1H591.5z M580.8,20.7h5.2v-1h-5.2V20.7z M580.8,18.7h5.2v-1h-5.2V18.7z M582.9,16.7h3.1v-1h-3.1V16.7z
		 M582.9,14.7h3.1v-1h-3.1V14.7z M595.4,9.7h-5.3l-0.4,1h5.6V9.7z M592.3,12.7h3.1v-1h-6l-0.3,0.8l-0.3-0.8h-6v1h3.1v-1l0.3,1h5.6
		l0.3-1L592.3,12.7z M595.4,13.7h-3.1v1h3.1V13.7z M592.3,16.7h3.1v-1h-3.1V16.7z M592.3,18.7h5.2v-1h-5.2V18.7z M592.3,20.7h5.2v-1
		h-5.2V20.7z M587.8,8.8l-0.4-1h-6.7v1H587.8z M587.2,6.8l-0.4-1h-6v1H587.2z M598.6,19.9c0-0.5,0.4-0.8,0.8-0.8
		c0.4,0,0.8,0.4,0.8,0.8c0,0.5-0.4,0.8-0.8,0.8C599,20.7,598.6,20.4,598.6,19.9z M600,20v-0.1c0-0.3-0.3-0.6-0.6-0.6
		c-0.3,0-0.6,0.3-0.6,0.6V20c0,0.3,0.3,0.6,0.6,0.6C599.8,20.6,600,20.3,600,20z M599.3,20.3h-0.2v-0.8h0.4c0.2,0,0.3,0.1,0.3,0.3
		c0,0.1-0.1,0.2-0.2,0.3l0.2,0.3h-0.2l-0.2-0.3h-0.1V20.3z M599.5,19.9C599.5,19.9,599.6,19.9,599.5,19.9l0.1-0.1
		c0-0.1,0-0.1-0.1-0.1h-0.2v0.2H599.5z"/>
</g>
</svg>
